<?xml version="1.0" encoding="UTF-8" standalone="no"?>
<svg id="Layer_1" data-name="Layer 1" viewBox="0 0 800 180" version="1.1" width="270" height="60" xmlns="http://www.w3.org/2000/svg" xmlns:svg="http://www.w3.org/2000/svg">
  <defs id="defs14">
    <style id="style1">
      .cls-1 { fill: url(#linear-gradient); }
      .cls-1, .cls-2, .cls-3, .cls-4, .cls-5 { stroke-width: 0px; }
      .cls-2 { fill: #000; }
      .cls-3 { fill: url(#radial-gradient-2); }
      .cls-4 { fill: url(#radial-gradient); }
      .cls-5 { fill: #231f20; }
    </style>
    <radialGradient id="radial-gradient" cx="140.6" cy="104.2" fx="140.6" fy="104.2" r="69.02" gradientUnits="userSpaceOnUse">
      <stop offset="0" stop-color="#20c4f4" />
      <stop offset=".19" stop-color="#21afe3" />
      <stop offset=".58" stop-color="#2679b9" />
      <stop offset="1" stop-color="#2c3987" />
    </radialGradient>
    <linearGradient id="linear-gradient" x1="109.8" y1="97.51" x2="109.8" y2="153.8" gradientUnits="userSpaceOnUse">
      <stop offset="0" stop-color="#fcaf26" />
      <stop offset=".59" stop-color="#faad26" />
      <stop offset=".8" stop-color="#f3a728" />
      <stop offset=".95" stop-color="#e79e2c" />
      <stop offset="1" stop-color="#e1992f" />
    </linearGradient>
    <radialGradient id="radial-gradient-2" cx="145.6" cy="91.77" fx="145.6" fy="91.77" r="91.87" gradientUnits="userSpaceOnUse">
      <stop offset="0" stop-color="#fff" />
      <stop offset=".15" stop-color="#e3f7fd" />
      <stop offset=".48" stop-color="#9be4fa" />
      <stop offset=".96" stop-color="#2ac6f4" />
      <stop offset="1" stop-color="#20c4f4" />
    </radialGradient>
  </defs>
  <rect x="10" y="10" rx="10" ry="10" width="780" height="160" fill="white"/>
  <g id="g17">
    <path class="cls-5" d="m 296.3,154.9 c -3,0 -5.5,-2.5 -5.5,-5.4 V 37.37 c 0,-2.96 2.5,-5.43 5.5,-5.43 3.1,0 5.4,2.47 5.4,5.43 V 149.5 c 0,2.9 -2.3,5.4 -5.4,5.4 z" id="path14" />
    <path class="cls-5" d="m 353.5,104.4 h -28.2 v 45.1 c 0,2.9 -2.3,5.4 -5.4,5.4 -3,0 -5.4,-2.5 -5.4,-5.4 V 38.85 c 0,-2.96 2.4,-5.43 5.4,-5.43 h 31.7 c 28,0 37.9,16.46 37.9,31.77 v 8.23 c 0,18.11 -13.3,30.98 -36,30.98 z m 25.1,-39.22 c 0,-9.71 -5.9,-21.4 -27.4,-21.4 h -25.9 v 50.54 h 27.8 c 17.7,0 25.5,-9.71 25.5,-21.07 z" id="path15" />
    <path class="cls-5" d="m 501.3,149.8 c 0,2.8 -2.3,5.1 -5.1,5.1 -2.8,0 -5.1,-2.3 -5.1,-5.1 V 56.62 l -34.6,73.88 c -1,2.2 -2.8,3.2 -5.1,3.2 -2,0 -3.9,-1.2 -4.9,-3.2 L 412.1,56.78 v 93.02 c 0,2.8 -2.3,5.1 -5.1,5.1 -2.8,0 -5.1,-2.3 -5.1,-5.1 V 37.04 c 0,-2.8 2.3,-5.1 5.4,-5.1 2.6,0 4.3,1.15 5.3,3.29 l 39.2,83.27 39.3,-83.44 c 1.1,-2.63 3.1,-3.13 4.9,-3.13 3.2,0 5.3,2.3 5.3,5.1 z" id="path16" />
    <path class="cls-5" d="m 594.1,154.9 c -2.3,0 -4.5,-1.3 -5.3,-4.1 -2.3,-9.2 -4.8,-18.1 -7.4,-26.8 H 530 c -2.6,8.7 -5.3,17.6 -7.6,26.8 -0.6,2.8 -2.8,4.1 -4.9,4.1 -3.1,0 -6.2,-2.6 -5.3,-6.7 10.2,-39.4 22.4,-74.95 36.7,-110.01 2.2,-5.27 4.5,-6.26 7,-6.26 2.3,0 4.6,0.99 6.9,6.26 14.1,35.06 26.5,70.61 36.5,110.01 1.2,4.1 -2.1,6.7 -5.3,6.7 z M 555.7,49.88 c -8.4,20.74 -16,41.81 -22.7,63.82 h 45.4 C 571.5,91.69 563.9,70.62 555.7,49.88 Z" id="path17" />
  </g>
  <path class="cls-4" d="M 223.8,101.1 C 208.1,72.51 178.1,54.75 145.6,54.75 c -48.56,0 -88.16,39.02 -89.11,87.35 0,0.6 0,3.3 0,3.9 0,4.3 3.48,7.7 7.78,7.7 4.3,0 7.78,-3.4 7.78,-7.7 0,-0.6 0,-3.3 0,-3.9 0.91,-28.5 24.43,-51.49 53.25,-51.49 19.4,0 37.3,10.59 46.7,27.69 2.1,3.8 6.8,5.2 10.6,3.1 3.7,-2.1 5.1,-6.8 3,-10.6 -12.1,-22.04 -35.2,-35.75 -60.3,-35.75 -2.2,0 -4.4,0.11 -6.5,0.31 8.3,-3.25 17.3,-5.04 26.8,-5.04 26.8,0 51.6,14.66 64.5,38.28 2.1,3.7 6.8,5.1 10.6,3.1 3.7,-2.1 5.1,-6.8 3,-10.6 z" id="path18" style="fill:url(#radial-gradient)" />
  <path class="cls-1" d="m 89.46,153.8 c -4.3,0 -7.78,-3.5 -7.78,-7.8 0,-26.7 21.72,-48.49 48.52,-48.49 4.3,0 7.8,3.49 7.8,7.79 0,4.3 -3.5,7.8 -7.8,7.8 -18.2,0 -32.95,14.7 -32.95,32.9 0,4.3 -3.48,7.8 -7.78,7.8 z" id="path19" style="fill:url(#linear-gradient)" />
  <path class="cls-3" d="m 252,153.7 c -4.3,0 -7.8,-3.4 -7.8,-7.7 0,-0.3 0,-2.6 0,-2.8 -0.4,-54.06 -44.5,-97.86 -98.6,-97.86 -54.12,0 -98.12,43.73 -98.63,97.66 0,0.3 0,2.7 0,3 0,4.3 -3.48,7.8 -7.78,7.8 -4.3,0 -7.78,-3.5 -7.78,-7.8 0,-0.3 0,-2.7 0,-3 C 31.92,80.49 82.94,29.78 145.6,29.78 c 62.6,0 113.9,50.95 114.2,113.72 0,0.1 0,2.3 0,2.5 0,4.3 -3.5,7.7 -7.8,7.7 z" id="path20" style="fill:url(#radial-gradient-2)" />
  <g id="g55">
    <path class="cls-2" d="m 617.7,57.01 c -0.5,0 -1,-0.49 -1,-1.07 V 33.9 c 0,-0.58 0.5,-1.07 1,-1.07 0.6,0 1.1,0.49 1.1,1.07 v 22.04 c 0,0.58 -0.4,1.07 -1.1,1.07 z" id="path21" />
    <path class="cls-2" d="m 635.5,56.91 c -0.5,0 -1,-0.45 -1,-1.04 v -9.52 c 0,-2.39 -0.7,-3.98 -3.5,-3.98 -2.2,0 -3.7,0.97 -4.5,2.43 v 11.07 c 0,0.58 -0.5,1.04 -1,1.04 -0.6,0 -1.1,-0.45 -1.1,-1.04 V 44.45 c 0,-1.39 -0.3,-1.78 -1,-2.11 -0.4,-0.16 -0.5,-0.45 -0.5,-0.78 0,-0.65 0.4,-0.97 1,-0.97 0.4,0 1.1,0.26 1.5,0.68 0.4,0.36 0.7,0.78 0.8,1.2 1.1,-1.3 2.8,-2.07 5.1,-2.07 4.2,0 5.3,2.59 5.3,5.83 v 9.64 c 0,0.58 -0.5,1.04 -1.1,1.04 z" id="path22" />
    <path class="cls-2" d="m 645.3,56.91 c -2,0 -3.3,-0.23 -4.6,-0.71 -0.5,-0.19 -0.7,-0.78 -0.5,-1.23 0.2,-0.49 0.7,-0.74 1.2,-0.55 1.1,0.42 2.1,0.65 3.9,0.65 2.7,0 3.9,-1.2 3.9,-2.91 0,-2.23 -2.3,-2.43 -4.6,-2.91 -2.3,-0.45 -4.4,-1.17 -4.4,-4.21 0,-3.04 2.3,-4.63 5.3,-4.63 1.7,0 2.8,0.19 4,0.71 0.6,0.23 0.7,0.78 0.5,1.23 -0.2,0.45 -0.6,0.71 -1.2,0.52 -1,-0.42 -1.9,-0.61 -3.3,-0.61 -2.2,0 -3.3,1.13 -3.3,2.72 0,2.01 2,2.3 4.1,2.72 2.4,0.45 4.8,1.1 4.8,4.4 0,3.3 -2.3,4.82 -5.9,4.82 z" id="path23" />
    <path class="cls-2" d="m 661.4,56.72 h -0.9 c -4.4,0 -5.3,-2.69 -5.3,-6.76 v -7.48 h -1.1 c -0.5,0 -0.9,-0.42 -0.9,-0.94 0,-0.52 0.4,-0.94 0.9,-0.94 h 1.1 v -3.89 c 0,-0.58 0.5,-1.03 1.1,-1.03 0.6,0 1,0.45 1,1.03 v 3.89 h 3.2 c 0.6,0 1,0.42 1,0.94 0,0.52 -0.4,0.94 -1,0.94 h -3.2 v 7.48 c 0,3.53 0.5,4.82 3.4,4.82 h 0.7 c 0.5,0 0.9,0.45 0.9,0.97 0,0.55 -0.4,0.97 -0.9,0.97 z" id="path24" />
    <path class="cls-2" d="m 666.1,36.27 c -0.7,0 -1.3,-0.55 -1.3,-1.26 0,-0.71 0.6,-1.26 1.3,-1.26 0.7,0 1.3,0.58 1.3,1.26 0,0.68 -0.6,1.26 -1.3,1.26 z m 0,20.64 c -0.6,0 -1,-0.45 -1,-1.04 V 41.43 c 0,-0.55 0.4,-1.03 1,-1.03 0.5,0 1,0.49 1,1.03 v 14.44 c 0,0.58 -0.5,1.04 -1,1.04 z" id="path25" />
    <path class="cls-2" d="m 678.4,56.72 h -0.9 c -4.4,0 -5.3,-2.69 -5.3,-6.76 v -7.48 h -1.1 c -0.5,0 -1,-0.42 -1,-0.94 0,-0.52 0.5,-0.94 1,-0.94 h 1.1 v -3.89 c 0,-0.58 0.5,-1.03 1.1,-1.03 0.5,0 1,0.45 1,1.03 v 3.89 h 3.2 c 0.5,0 1,0.42 1,0.94 0,0.52 -0.4,0.94 -1,0.94 h -3.2 v 7.48 c 0,3.53 0.5,4.82 3.4,4.82 h 0.7 c 0.5,0 0.9,0.45 0.9,0.97 0,0.55 -0.4,0.97 -0.9,0.97 z" id="path26" />
    <path class="cls-2" d="m 694.7,56.91 c -0.4,0 -1.1,-0.26 -1.6,-0.68 -0.4,-0.39 -0.6,-0.84 -0.7,-1.33 -1.2,1.26 -2.8,2.01 -5.1,2.01 -4.1,0 -5.3,-2.56 -5.3,-5.79 v -9.68 c 0,-0.55 0.5,-1.03 1.1,-1.03 0.5,0 1,0.49 1,1.03 v 9.52 c 0,2.46 0.7,3.95 3.5,3.95 2.3,0 3.7,-0.97 4.5,-2.56 V 41.44 c 0,-0.55 0.4,-1.03 1,-1.03 0.6,0 1.1,0.49 1.1,1.03 v 11.62 c 0,1.42 0.3,1.81 1,2.14 0.3,0.13 0.5,0.42 0.5,0.78 0,0.62 -0.4,0.94 -1,0.94 z" id="path27" />
    <path class="cls-2" d="M 705.9,56.72 H 705 c -4.4,0 -5.3,-2.69 -5.3,-6.76 v -7.48 h -1.1 c -0.5,0 -1,-0.42 -1,-0.94 0,-0.52 0.5,-0.94 1,-0.94 h 1.1 v -3.89 c 0,-0.58 0.5,-1.03 1.1,-1.03 0.5,0 1,0.45 1,1.03 v 3.89 h 3.2 c 0.5,0 1,0.42 1,0.94 0,0.52 -0.4,0.94 -1,0.94 h -3.2 v 7.48 c 0,3.53 0.5,4.82 3.4,4.82 h 0.7 c 0.5,0 0.9,0.45 0.9,0.97 0,0.55 -0.4,0.97 -0.9,0.97 z" id="path28" />
    <path class="cls-2" d="m 715.3,56.91 c -4.5,0 -6.3,-2.98 -6.3,-6.6 v -3.3 c 0,-3.62 1.8,-6.6 6.3,-6.6 4.5,0 6.3,2.98 6.3,6.6 v 3.3 c 0,3.63 -1.8,6.6 -6.3,6.6 z m 4.2,-9.9 c 0,-2.78 -1.2,-4.63 -4.2,-4.63 -3,0 -4.3,1.84 -4.3,4.63 v 3.3 c 0,2.82 1.2,4.66 4.3,4.66 3,0 4.2,-1.84 4.2,-4.66 z" id="path29" />
    <path class="cls-2" d="m 624.3,79.43 h -5.5 v 8.87 c 0,0.58 -0.4,1.07 -1.1,1.07 -0.5,0 -1,-0.49 -1,-1.07 V 66.55 c 0,-0.58 0.5,-1.07 1,-1.07 h 6.3 c 5.5,0 7.4,3.24 7.4,6.25 v 1.62 c 0,3.56 -2.6,6.08 -7.1,6.08 z m 5,-7.7 c 0,-1.91 -1.2,-4.21 -5.4,-4.21 h -5.1 v 9.94 h 5.5 c 3.4,0 5,-1.91 5,-4.14 z" id="path30" />
    <path class="cls-2" d="m 640.9,89.27 c -4.5,0 -6.2,-2.98 -6.2,-6.6 v -3.3 c 0,-3.62 1.7,-6.6 6.2,-6.6 4.5,0 6.3,2.98 6.3,6.6 v 3.3 c 0,3.63 -1.8,6.6 -6.3,6.6 z m 4.2,-9.91 c 0,-2.78 -1.2,-4.63 -4.2,-4.63 -3,0 -4.2,1.84 -4.2,4.63 v 3.3 c 0,2.82 1.2,4.66 4.2,4.66 3.1,0 4.2,-1.84 4.2,-4.66 z" id="path31" />
    <path class="cls-2" d="m 659.7,74.99 c -0.4,-0.1 -0.9,-0.23 -1.8,-0.23 -1.3,0 -3.4,0.42 -4,3.46 v 10 c 0,0.58 -0.5,1.04 -1,1.04 -0.6,0 -1,-0.45 -1,-1.04 V 76.8 c 0,-1.39 -0.4,-1.78 -1.1,-2.11 -0.4,-0.16 -0.5,-0.45 -0.5,-0.78 0,-0.58 0.4,-0.97 1,-0.97 0.1,0 0.2,0 0.3,0 1.3,0.32 1.8,1.17 2.1,2.07 1.3,-2.01 3.2,-2.3 4.5,-2.3 0.9,0 1.6,0.13 2.2,0.32 0.5,0.23 0.7,0.84 0.5,1.33 -0.2,0.42 -0.6,0.75 -1.2,0.58 z" id="path32" />
    <path class="cls-2" d="m 670,89.07 h -0.9 c -4.4,0 -5.3,-2.69 -5.3,-6.76 v -7.48 h -1.1 c -0.5,0 -1,-0.42 -1,-0.94 0,-0.52 0.5,-0.94 1,-0.94 h 1.1 v -3.89 c 0,-0.58 0.5,-1.03 1,-1.03 0.6,0 1.1,0.45 1.1,1.03 v 3.89 h 3.2 c 0.5,0 1,0.42 1,0.94 0,0.52 -0.5,0.94 -1,0.94 h -3.2 v 7.48 c 0,3.53 0.5,4.82 3.3,4.82 h 0.8 c 0.5,0 0.9,0.45 0.9,0.97 0,0.55 -0.4,0.97 -0.9,0.97 z" id="path33" />
    <path class="cls-2" d="m 686.3,89.27 c -0.4,0 -1.1,-0.26 -1.6,-0.68 -0.4,-0.39 -0.6,-0.84 -0.7,-1.33 -1.2,1.26 -2.8,2.01 -5.1,2.01 -4.1,0 -5.3,-2.56 -5.3,-5.79 V 73.8 c 0,-0.55 0.5,-1.03 1,-1.03 0.6,0 1.1,0.49 1.1,1.03 v 9.52 c 0,2.46 0.7,3.95 3.4,3.95 2.4,0 3.8,-0.97 4.6,-2.56 V 73.8 c 0,-0.55 0.4,-1.03 1,-1.03 0.6,0 1,0.49 1,1.03 v 11.62 c 0,1.42 0.4,1.81 1.1,2.14 0.3,0.13 0.5,0.42 0.5,0.78 0,0.62 -0.5,0.94 -1,0.94 z" id="path34" />
    <path class="cls-2" d="m 702.3,88.01 c 0,3.82 -1.5,6.99 -6.2,6.99 -1.6,0 -3.1,-0.26 -4.3,-0.81 -0.4,-0.16 -0.7,-0.48 -0.7,-0.84 0,-0.55 0.6,-1.1 1.2,-0.91 1,0.32 2.1,0.71 3.7,0.71 3.2,0 4.2,-2.01 4.2,-5.08 v -0.94 c -1.3,1 -3,1.42 -4.2,1.42 -4.2,0 -5.6,-2.59 -5.6,-6.51 v -2.59 c 0,-3.92 1.5,-6.7 5.7,-6.7 1.2,0 2.7,0.42 4.1,1.59 v -0.55 c 0,-0.58 0.5,-1.03 1.1,-1.03 0.6,0 1,0.45 1,1.03 V 88 Z m -2.1,-11.49 c -1.2,-1.46 -2.8,-1.85 -3.9,-1.85 -2.7,0 -3.9,1.65 -3.9,4.63 v 2.88 c 0,2.91 1,4.47 3.8,4.47 1.1,0 2.8,-0.42 4,-1.55 z" id="path35" />
    <path class="cls-2" d="m 719.7,89.27 c -0.4,0 -1.1,-0.26 -1.6,-0.68 -0.4,-0.39 -0.6,-0.84 -0.7,-1.33 -1.2,1.26 -2.8,2.01 -5.2,2.01 -4,0 -5.2,-2.56 -5.2,-5.79 V 73.8 c 0,-0.55 0.5,-1.03 1,-1.03 0.6,0 1.1,0.49 1.1,1.03 v 9.52 c 0,2.46 0.7,3.95 3.4,3.95 2.4,0 3.8,-0.97 4.6,-2.56 V 73.8 c 0,-0.55 0.4,-1.03 1,-1.03 0.6,0 1,0.49 1,1.03 v 11.62 c 0,1.42 0.4,1.81 1.1,2.14 0.3,0.13 0.5,0.42 0.5,0.78 0,0.62 -0.5,0.94 -1,0.94 z" id="path36" />
    <path class="cls-2" d="m 736.1,80.79 c 0,0.55 -0.4,0.87 -0.9,0.87 h -9.4 v 0.97 c 0,2.88 1.3,4.79 4.2,4.79 1.9,0 3.2,-0.42 4.2,-1.03 0.5,-0.29 1,0 1.2,0.42 0.2,0.42 0.1,0.91 -0.3,1.2 -1.5,0.87 -3.2,1.26 -5.2,1.26 -4.5,0 -6.1,-3.11 -6.1,-6.73 v -3.01 c 0,-3.66 1.7,-6.76 6.1,-6.76 4.5,0 6.1,3.07 6.1,6.7 v 1.33 z m -2.4,-11.75 -3.7,-3.53 -3.7,3.53 c -0.4,0.36 -0.9,0.32 -1.3,-0.1 -0.3,-0.36 -0.3,-0.87 0.1,-1.26 l 4.2,-4.21 c 0.1,-0.16 0.4,-0.29 0.7,-0.26 0.3,0 0.5,0.1 0.7,0.26 l 4.2,4.24 c 0.4,0.39 0.4,0.91 0,1.26 -0.3,0.35 -0.8,0.39 -1.2,0 z m -3.8,5.53 c -2.9,0 -4.1,1.88 -4.1,4.73 v 0.61 h 8.3 v -0.65 c 0,-2.85 -1.1,-4.69 -4.2,-4.69 z" id="path37" />
    <path class="cls-2" d="m 744,89.27 c -2,0 -3.3,-0.23 -4.5,-0.71 -0.6,-0.19 -0.7,-0.78 -0.5,-1.23 0.1,-0.49 0.6,-0.74 1.2,-0.55 1,0.42 2,0.65 3.8,0.65 2.8,0 3.9,-1.2 3.9,-2.91 0,-2.23 -2.3,-2.43 -4.6,-2.91 -2.2,-0.45 -4.3,-1.17 -4.3,-4.21 0,-3.04 2.2,-4.63 5.2,-4.63 1.7,0 2.8,0.19 4,0.71 0.6,0.23 0.8,0.78 0.6,1.23 -0.2,0.45 -0.7,0.71 -1.2,0.52 -1.1,-0.42 -2,-0.61 -3.3,-0.61 -2.2,0 -3.4,1.13 -3.4,2.72 0,2.01 2,2.3 4.2,2.72 2.3,0.45 4.8,1.1 4.8,4.4 0,3.3 -2.4,4.82 -5.9,4.82 z" id="path38" />
    <path class="cls-2" d="m 628.1,121.6 c -0.5,0 -1.1,-0.2 -1.6,-0.7 -0.3,-0.2 -0.4,-0.5 -0.6,-0.8 -1.3,1 -2.9,1.5 -4.3,1.5 -4.3,0 -5.9,-2.3 -5.9,-6.3 v -3.1 c 0,-4.1 1.5,-7.1 5.8,-7.1 1.2,0 2.7,0.4 4.1,1.4 v -7.48 c 0,-0.58 0.4,-1.03 1,-1.03 0.5,0 1,0.45 1,1.03 v 18.78 c 0,1.4 0.2,1.8 0.9,2.1 0.4,0.1 0.6,0.4 0.6,0.8 0,0.6 -0.5,0.9 -1,0.9 z m -2.5,-12.9 c -1.3,-1.3 -2.8,-1.7 -3.9,-1.7 -2.8,0 -3.9,1.8 -3.9,5 v 3.3 c 0,2.9 1,4.4 4,4.4 1.1,0 2.5,-0.4 3.8,-1.5 z" id="path39" />
    <path class="cls-2" d="m 638.5,121.6 c -4.5,0 -6.3,-3 -6.3,-6.6 v -3.3 c 0,-3.6 1.8,-6.6 6.3,-6.6 4.5,0 6.2,3 6.2,6.6 v 3.3 c 0,3.7 -1.7,6.6 -6.2,6.6 z m 4.1,-9.9 c 0,-2.8 -1.2,-4.6 -4.2,-4.6 -3,0 -4.2,1.8 -4.2,4.6 v 3.3 c 0,2.8 1.2,4.7 4.2,4.7 3.1,0 4.2,-1.9 4.2,-4.7 z" id="path40" />
    <path class="cls-2" d="m 678.1,120.7 c 0,0.6 -0.4,1 -1,1 -0.5,0 -1,-0.4 -1,-1 v -18.3 l -6.8,14.5 c -0.1,0.4 -0.5,0.6 -1,0.6 -0.3,0 -0.7,-0.2 -0.9,-0.6 l -6.8,-14.5 v 18.3 c 0,0.6 -0.4,1 -1,1 -0.5,0 -1,-0.4 -1,-1 V 98.54 c 0,-0.55 0.5,-1 1.1,-1 0.5,0 0.8,0.23 1,0.65 l 7.7,16.41 7.8,-16.44 c 0.2,-0.52 0.6,-0.61 0.9,-0.61 0.6,0 1.1,0.45 1.1,1 v 22.15 z" id="path41" />
    <path class="cls-2" d="m 694.5,121.6 c -0.5,0 -1.2,-0.2 -1.6,-0.7 -0.3,-0.3 -0.5,-0.7 -0.6,-1.1 -1.2,1.5 -3.1,1.8 -4.6,1.8 -4,0 -5.5,-2.1 -5.5,-4.6 v -0.3 c 0,-2.5 1.6,-4.5 5.7,-4.5 h 4.1 v -0.9 c 0,-3 -0.7,-4.4 -3.8,-4.4 -1.6,0 -2.6,0.4 -3.5,0.9 -1.1,0.6 -2,-0.9 -1,-1.6 1.2,-0.7 2.8,-1.1 4.6,-1.1 4.5,0 5.7,2.3 5.7,6.3 v 6.4 c 0,1.4 0.3,1.8 1,2.1 0.3,0.2 0.5,0.4 0.5,0.8 0,0.6 -0.5,0.9 -1,0.9 z m -2.5,-7.7 h -4 c -3.1,0 -3.8,1.4 -3.8,2.8 v 0.3 c 0,1.5 0.8,2.9 3.8,2.9 2.5,0 4,-1.3 4,-3.9 z" id="path42" />
    <path class="cls-2" d="m 707.4,107.3 c -0.4,-0.1 -0.9,-0.2 -1.8,-0.2 -1.3,0 -3.4,0.4 -3.9,3.5 v 10 c 0,0.6 -0.5,1 -1.1,1 -0.6,0 -1,-0.4 -1,-1 v -11.4 c 0,-1.4 -0.4,-1.8 -1.1,-2.2 -0.3,-0.1 -0.5,-0.4 -0.5,-0.7 0,-0.6 0.4,-1 1,-1 0.1,0 0.2,0 0.3,0 1.3,0.3 1.9,1.2 2.1,2.1 1.4,-2 3.3,-2.3 4.5,-2.3 0.9,0 1.6,0.1 2.2,0.3 0.5,0.2 0.7,0.9 0.5,1.3 -0.2,0.5 -0.6,0.8 -1.2,0.6 z" id="path43" />
    <path class="cls-2" d="m 732.2,113.1 c 0,0.6 -0.4,0.9 -0.8,0.9 H 722 v 1 c 0,2.9 1.2,4.8 4.1,4.8 2,0 3.2,-0.4 4.3,-1.1 0.5,-0.2 1,0 1.2,0.5 0.2,0.4 0.1,0.9 -0.4,1.2 -1.4,0.8 -3.1,1.2 -5.1,1.2 -4.5,0 -6.2,-3.1 -6.2,-6.7 v -3 c 0,-3.7 1.7,-6.8 6.2,-6.8 4.5,0 6.1,3.1 6.1,6.7 v 1.4 z m -6.1,-6.2 c -3,0 -4.1,1.9 -4.1,4.8 v 0.6 h 8.2 v -0.7 c 0,-2.8 -1,-4.7 -4.1,-4.7 z" id="path44" />
    <path class="cls-2" d="m 757.2,121.6 c -0.4,0 -1.1,-0.2 -1.5,-0.7 -0.3,-0.2 -0.5,-0.5 -0.6,-0.8 -1.3,1 -2.9,1.5 -4.4,1.5 -4.2,0 -5.8,-2.3 -5.8,-6.3 v -3.1 c 0,-4.1 1.5,-7.1 5.7,-7.1 1.2,0 2.8,0.4 4.1,1.4 v -7.48 c 0,-0.58 0.5,-1.03 1,-1.03 0.6,0 1.1,0.45 1.1,1.03 v 18.78 c 0,1.4 0.2,1.8 0.9,2.1 0.4,0.1 0.5,0.4 0.5,0.8 0,0.6 -0.4,0.9 -1,0.9 z m -2.5,-12.9 c -1.2,-1.3 -2.8,-1.7 -3.8,-1.7 -2.8,0 -4,1.8 -4,5 v 3.3 c 0,2.9 1.1,4.4 4.1,4.4 1.1,0 2.5,-0.4 3.7,-1.5 z" id="path45" />
    <path class="cls-2" d="m 773.1,121.6 c -0.5,0 -1.2,-0.2 -1.6,-0.7 -0.3,-0.3 -0.5,-0.7 -0.6,-1.1 -1.2,1.5 -3.1,1.8 -4.6,1.8 -4,0 -5.6,-2.1 -5.6,-4.6 v -0.3 c 0,-2.5 1.7,-4.5 5.8,-4.5 h 4 v -0.9 c 0,-3 -0.6,-4.4 -3.7,-4.4 -1.6,0 -2.7,0.4 -3.5,0.9 -1.1,0.6 -2,-0.9 -1,-1.6 1.2,-0.7 2.7,-1.1 4.5,-1.1 4.6,0 5.8,2.3 5.8,6.3 v 6.4 c 0,1.4 0.3,1.8 1,2.1 0.3,0.2 0.5,0.4 0.5,0.8 0,0.6 -0.5,0.9 -1,0.9 z m -2.6,-7.7 h -3.9 c -3.1,0 -3.8,1.4 -3.8,2.8 v 0.3 c 0,1.5 0.7,2.9 3.7,2.9 2.6,0 4,-1.3 4,-3.9 z" id="path46" />
    <path class="cls-2" d="m 632.1,154.1 c -0.4,0 -0.9,-0.3 -1,-0.8 -0.5,-1.8 -1,-3.6 -1.5,-5.3 h -10.1 c -0.5,1.7 -1,3.4 -1.5,5.3 -0.1,0.5 -0.5,0.8 -0.9,0.8 -0.6,0 -1.3,-0.6 -1.1,-1.4 2,-7.7 4.4,-14.7 7.3,-21.6 0.4,-1 0.8,-1.2 1.3,-1.2 0.5,0 0.9,0.2 1.4,1.2 2.8,6.9 5.2,13.9 7.2,21.6 0.2,0.8 -0.4,1.4 -1.1,1.4 z m -7.5,-20.7 c -1.7,4.1 -3.2,8.2 -4.5,12.6 h 8.9 c -1.3,-4.4 -2.8,-8.5 -4.4,-12.6 z" id="path47" />
    <path class="cls-2" d="m 642.5,153.8 h -0.8 c -4.4,0 -5.3,-2.7 -5.3,-6.8 v -7.5 h -1.2 c -0.5,0 -0.9,-0.4 -0.9,-0.9 0,-0.5 0.4,-0.9 0.9,-0.9 h 1.2 v -3.9 c 0,-0.6 0.4,-1.1 1,-1.1 0.6,0 1,0.5 1,1.1 v 3.9 h 3.3 c 0.5,0 0.9,0.4 0.9,0.9 0,0.5 -0.4,0.9 -0.9,0.9 h -3.3 v 7.5 c 0,3.6 0.6,4.8 3.4,4.8 h 0.7 c 0.5,0 1,0.5 1,1 0,0.6 -0.5,1 -1,1 z" id="path48" />
    <path class="cls-2" d="m 667,154 c -0.6,0 -1,-0.5 -1,-1.1 v -9.5 c 0,-2.4 -0.7,-4 -3.3,-4 -2.3,0 -3.7,1.1 -4.4,2.5 0.1,0.4 0.1,0.9 0.1,1.4 v 9.6 c 0,0.6 -0.5,1.1 -1,1.1 -0.6,0 -1,-0.5 -1,-1.1 v -9.5 c 0,-2.4 -0.7,-4 -3.4,-4 -2.1,0 -3.5,0.9 -4.2,2.2 v 11.3 c 0,0.6 -0.5,1.1 -1.1,1.1 -0.5,0 -1,-0.5 -1,-1.1 v -11.4 c 0,-1.4 -0.3,-1.8 -1.1,-2.1 -0.3,-0.2 -0.5,-0.5 -0.5,-0.8 0,-0.6 0.5,-1 1.1,-1 0.4,0 1.1,0.3 1.5,0.7 0.3,0.3 0.6,0.7 0.7,1.1 1.1,-1.2 2.7,-2 4.9,-2 2.4,0 3.7,1 4.4,2.4 1.1,-1.5 2.8,-2.4 5.3,-2.4 4,0 5.1,2.6 5.1,5.9 v 9.6 c 0,0.6 -0.5,1.1 -1.1,1.1 z" id="path49" />
    <path class="cls-2" d="m 678.5,154 c -4.5,0 -6.3,-3 -6.3,-6.6 v -3.3 c 0,-3.6 1.8,-6.6 6.3,-6.6 4.5,0 6.3,3 6.3,6.6 v 3.3 c 0,3.6 -1.8,6.6 -6.3,6.6 z m 4.2,-9.9 c 0,-2.8 -1.2,-4.7 -4.2,-4.7 -3,0 -4.3,1.9 -4.3,4.7 v 3.3 c 0,2.8 1.2,4.6 4.3,4.6 3,0 4.2,-1.8 4.2,-4.6 z" id="path50" />
    <path class="cls-2" d="m 693,154 c -2,0 -3.3,-0.3 -4.6,-0.7 -0.5,-0.2 -0.7,-0.8 -0.5,-1.3 0.2,-0.5 0.7,-0.7 1.2,-0.5 1.1,0.4 2.1,0.6 3.9,0.6 2.7,0 3.9,-1.2 3.9,-2.9 0,-2.2 -2.3,-2.4 -4.6,-2.9 -2.2,-0.4 -4.4,-1.2 -4.4,-4.2 0,-3 2.3,-4.6 5.3,-4.6 1.7,0 2.8,0.2 4,0.7 0.6,0.2 0.7,0.8 0.5,1.2 -0.2,0.5 -0.6,0.7 -1.2,0.5 -1,-0.4 -1.9,-0.6 -3.3,-0.6 -2.2,0 -3.3,1.2 -3.3,2.7 0,2 2,2.3 4.1,2.8 2.4,0.4 4.8,1.1 4.8,4.4 0,3.3 -2.3,4.8 -5.9,4.8 z" id="path51" />
    <path class="cls-2" d="m 709.2,132.2 h -0.8 c -3.1,0 -3.7,1.3 -3.7,4.6 v 0.9 h 3 c 0.5,0 0.9,0.4 0.9,0.9 0,0.5 -0.4,0.9 -0.9,0.9 h -3 v 13.4 c 0,0.6 -0.5,1.1 -1,1.1 -0.6,0 -1.1,-0.5 -1.1,-1.1 v -13.4 h -1.1 c -0.5,0 -0.9,-0.4 -0.9,-0.9 0,-0.5 0.4,-0.9 0.9,-0.9 h 1.1 v -0.9 c 0,-4 1.1,-6.6 5.7,-6.6 h 1 c 0.5,0 0.9,0.5 0.9,1 0,0.6 -0.4,1 -0.9,1 z" id="path52" />
    <path class="cls-2" d="m 723.4,145.5 c 0,0.5 -0.4,0.9 -0.9,0.9 h -9.4 v 0.9 c 0,2.9 1.3,4.8 4.2,4.8 1.9,0 3.2,-0.4 4.2,-1 0.5,-0.3 1,0 1.2,0.4 0.2,0.4 0.1,0.9 -0.3,1.2 -1.5,0.9 -3.2,1.3 -5.2,1.3 -4.5,0 -6.1,-3.1 -6.1,-6.8 v -3 c 0,-3.6 1.7,-6.7 6.1,-6.7 4.5,0 6.1,3 6.1,6.7 v 1.3 z m -6.2,-6.2 c -2.9,0 -4.1,1.9 -4.1,4.7 v 0.6 h 8.3 V 144 c 0,-2.9 -1.1,-4.7 -4.2,-4.7 z" id="path53" />
    <path class="cls-2" d="m 735.6,139.7 c -0.4,-0.1 -0.9,-0.2 -1.8,-0.2 -1.4,0 -3.4,0.4 -4,3.4 v 10 c 0,0.6 -0.5,1.1 -1,1.1 -0.6,0 -1,-0.5 -1,-1.1 v -11.4 c 0,-1.4 -0.4,-1.8 -1.1,-2.1 -0.4,-0.2 -0.5,-0.4 -0.5,-0.8 0,-0.6 0.4,-0.9 1,-0.9 0.1,0 0.2,0 0.3,0 1.3,0.3 1.8,1.2 2.1,2.1 1.3,-2.1 3.2,-2.3 4.5,-2.3 0.9,0 1.6,0.1 2.2,0.3 0.5,0.2 0.7,0.8 0.5,1.3 -0.2,0.4 -0.7,0.8 -1.2,0.6 z" id="path54" />
    <path class="cls-2" d="m 750.5,154 c -0.5,0 -1.1,-0.3 -1.5,-0.7 -0.3,-0.3 -0.5,-0.7 -0.7,-1.1 -1.1,1.5 -3.1,1.8 -4.5,1.8 -4.1,0 -5.6,-2.2 -5.6,-4.7 v -0.2 c 0,-2.5 1.6,-4.6 5.8,-4.6 h 4 v -0.8 c 0,-3 -0.6,-4.4 -3.7,-4.4 -1.7,0 -2.7,0.4 -3.5,0.9 -1.1,0.6 -2.1,-1 -1,-1.6 1.2,-0.8 2.7,-1.1 4.5,-1.1 4.6,0 5.8,2.3 5.8,6.3 v 6.3 c 0,1.4 0.2,1.8 0.9,2.2 0.4,0.1 0.5,0.4 0.5,0.7 0,0.7 -0.4,1 -1,1 z m -2.5,-7.8 h -3.9 c -3.1,0 -3.8,1.5 -3.8,2.9 v 0.3 c 0,1.4 0.7,2.8 3.7,2.8 2.5,0 4,-1.2 4,-3.8 z" id="path55" />
  </g>
</svg>
